# xmcd
#
# Track frame offsets:
#	300
#	17953
#	36341
#	52712
#	71528
#	93720
#	107791
#	125378
#	141742
#	158024
#	171727
#	187360
#
# Disc length: 2767 seconds
#
# Revision: 1
# Processed by: cddbd v1.5.2PL0 Copyright (c) Steve Scherf et al.
# Submitted via: audiograbber 1.83.01
#
DISCID=b90acb0c
DTITLE=CD Pool - Urban January 2011 CD2
DYEAR=2011
DGENRE=R&B
TTITLE0=Dr Dre Ft Snoop Dogg and Akon - Kush (Explicit)
TTITLE1=Diddy-Dirty Money Ft Swizz Beatz - Ass On The Dancefloor (Explicit Vers
TTITLE1=ion)
TTITLE2=Fugative Ft Mz Bratt and Wiley - Go Hard (Dirty Version)
TTITLE3=Big Man Zest - Who I Am (Extended Mix)
TTITLE4=Jayel - Smooth Criminal (Digital Dubstar Remix)
TTITLE5=Zebulon Raphael - Rock You To The Top (Radio Edit)
TTITLE6=B.A.R.S. Ft Reece - Say A Prayer (Club Version)
TTITLE7=Adian Coker - Getting Started
TTITLE8=Fr3e Ft Young Spray - Round Here (Explicit)
TTITLE9=DJ Revolution Presents Malcolm and Martin - Movement Music (Explicit Vers
TTITLE9=ion)
TTITLE10=A Tribe Called Quest - Award Tour
TTITLE11=Faith Evans - You Used To Love Me (Album Version)
EXTD=
EXTT0=
EXTT1=
EXTT2=
EXTT3=
EXTT4=
EXTT5=
EXTT6=
EXTT7=
EXTT8=
EXTT9=
EXTT10=
EXTT11=
PLAYORDER=
